<svg width="336" height="157" viewBox="0 0 336 157" fill="none" xmlns="http://www.w3.org/2000/svg">
<path d="M136 22H310V44H298.5H289.496C284.176 44 278.866 44.4717 273.629 45.4097L262.77 47.3547C253.02 49.1009 243.714 52.7649 235.392 58.1344L224.358 65.253C219.553 68.3528 215.737 72.7634 213.36 77.9635L213.174 78.3687C210.472 84.2802 209.859 90.9346 211.435 97.2405V97.2405C211.801 98.7037 212.651 100 213.846 100.92L221.012 106.432C223.633 108.449 226.695 109.818 229.946 110.427L238.802 112.088C240.187 112.348 241.37 113.24 242 114.5V114.5L242.126 115.256C242.364 116.682 243.207 117.935 244.437 118.692L249 121.5V138H223L214 131H141.5L135 138H110.5V123.5L124.049 120.188C129.931 118.75 135.384 115.927 139.953 111.954L142.898 109.393C143.959 108.47 144.869 107.386 145.592 106.179V106.179C146.841 104.099 147.5 101.718 147.5 99.2924V93L146.5 85L146.121 83.2933C145.715 81.469 144.798 79.7981 143.477 78.4766V78.4766C142.185 77.1845 140.558 76.2783 138.779 75.8597L133 74.5L116.665 73.0587C116.223 73.0197 115.785 72.9385 115.358 72.8165L91.5 66L55.5 51.5L35.5 40.5L27 33.5V33.5C25.5665 32.0665 26.6277 29.6183 28.6539 29.6844L115 32.5V30.5H136V22Z" fill="#D9D9D9"/>
</svg>
